<svg width="16" height="16" viewBox="0 0 16 16" fill="none" xmlns="http://www.w3.org/2000/svg">
<path d="M8 11.7949C7.34356 11.7949 6.71067 11.9007 6.10133 12.1122C5.49189 12.3238 4.92817 12.6454 4.41017 13.0769C4.41872 13.1377 4.44228 13.1922 4.48083 13.2404C4.51928 13.2887 4.562 13.3197 4.609 13.3334H11.3847C11.4317 13.3197 11.4744 13.2887 11.5128 13.2404C11.5513 13.1922 11.5748 13.1377 11.5833 13.0769C11.0739 12.6454 10.5145 12.3238 9.90517 12.1122C9.29572 11.9007 8.66067 11.7949 8 11.7949ZM8 10.7949C8.76667 10.7949 9.48333 10.9116 10.15 11.1449C10.8167 11.3782 11.4333 11.706 12 12.1282V2.87191C12 2.82058 11.9786 2.77358 11.9358 2.73091C11.8932 2.68814 11.8462 2.66675 11.7948 2.66675H4.20517C4.15383 2.66675 4.10683 2.68814 4.06417 2.73091C4.02139 2.77358 4 2.82058 4 2.87191V12.1282C4.56667 11.706 5.18333 11.3782 5.85 11.1449C6.51667 10.9116 7.23333 10.7949 8 10.7949ZM8 8.35908C7.67944 8.35908 7.40489 8.24475 7.17633 8.01608C6.94767 7.78753 6.83333 7.51297 6.83333 7.19241C6.83333 6.87186 6.94767 6.5973 7.17633 6.36875C7.40489 6.14008 7.67944 6.02575 8 6.02575C8.32056 6.02575 8.59511 6.14008 8.82367 6.36875C9.05233 6.5973 9.16667 6.87186 9.16667 7.19241C9.16667 7.51297 9.05233 7.78753 8.82367 8.01608C8.59511 8.24475 8.32056 8.35908 8 8.35908ZM4.20517 14.3334C3.86839 14.3334 3.58333 14.2167 3.35 13.9834C3.11667 13.7501 3 13.465 3 13.1282V2.87191C3 2.53514 3.11667 2.25008 3.35 2.01675C3.58333 1.78341 3.86839 1.66675 4.20517 1.66675H11.7948C12.1316 1.66675 12.4167 1.78341 12.65 2.01675C12.8833 2.25008 13 2.53514 13 2.87191V13.1282C13 13.465 12.8833 13.7501 12.65 13.9834C12.4167 14.2167 12.1316 14.3334 11.7948 14.3334H4.20517ZM8 9.35908C8.60167 9.35908 9.11322 9.14842 9.53467 8.72708C9.956 8.30564 10.1667 7.79408 10.1667 7.19241C10.1667 6.59075 9.956 6.07919 9.53467 5.65775C9.11322 5.23642 8.60167 5.02575 8 5.02575C7.39833 5.02575 6.88678 5.23642 6.46533 5.65775C6.044 6.07919 5.83333 6.59075 5.83333 7.19241C5.83333 7.79408 6.044 8.30564 6.46533 8.72708C6.88678 9.14842 7.39833 9.35908 8 9.35908Z" fill="#676767"/>
</svg>
